# xmcd
#
# Track frame offsets:
#	165
#	15230
#	27210
#	46332
#	72777
#	92367
#	113227
#	133512
#	151719
#	170180
#	187793
#	208474
#	231711
#	248185
#
# Disc length: 3523 seconds
#
# Revision: 1
# Processed by: cddbd v1.5.1PL2 Copyright (c) Steve Scherf et al.
# Submitted via: audiograbber 1.83.01
#
DISCID=b50dc10e
DTITLE=Los Conejos - Bluesadic
DYEAR=1900
DGENRE=Blues
TTITLE0=Bluesadic
TTITLE1=Damned Thing Boogie
TTITLE2=Ones Too Many
TTITLE3=Murder in the first degree
TTITLE4=We live in a World
TTITLE5=Nice, dear, kind and lovely
TTITLE6=Lets talk about it
TTITLE7=Satisfied
TTITLE8=Mr. Highway Man
TTITLE9=The Girls Allright
TTITLE10=Roadhouse
TTITLE11=Mistreated Woman
TTITLE12=Living in double trouble
TTITLE13=Jumpin Blues
EXTD=
EXTT0=
EXTT1=
EXTT2=
EXTT3=
EXTT4=
EXTT5=
EXTT6=
EXTT7=
EXTT8=
EXTT9=
EXTT10=
EXTT11=
EXTT12=
EXTT13=
PLAYORDER=
